<svg width="56" height="56" viewBox="0 0 56 56" fill="none" xmlns="http://www.w3.org/2000/svg">
<path d="M27.9994 4.66669C15.1124 4.66669 4.66602 15.113 4.66602 28C4.66602 40.887 15.1124 51.3334 27.9994 51.3334C40.8864 51.3334 51.3327 40.887 51.3327 28C51.3327 15.113 40.8864 4.66669 27.9994 4.66669ZM33.1397 37.0277C32.1947 37.9727 30.993 38.5489 29.698 38.7356V39.6667C29.698 40.6327 28.914 41.4167 27.948 41.4167C26.982 41.4167 26.198 40.6327 26.198 39.6667V38.731C23.531 38.297 21.4147 36.1481 21.102 33.3808C20.9947 32.4194 21.6853 31.5538 22.6467 31.4465C23.594 31.3275 24.4737 32.0298 24.581 32.9911C24.7304 34.3211 25.8504 35.3244 27.185 35.3244H28.8184C29.5137 35.3244 30.1694 35.0513 30.6664 34.5543C31.1634 34.0573 31.4363 33.4016 31.4363 32.7063C31.4363 31.5046 30.6197 30.4616 29.4507 30.1653L25.6987 29.2345C24.3687 28.8961 23.1833 28.1237 22.3527 27.0527C21.5267 26.0073 21.0647 24.668 21.0647 23.2983C21.0647 20.2627 23.293 17.7544 26.198 17.2807V16.3334C26.198 15.3674 26.982 14.5834 27.948 14.5834C28.914 14.5834 29.698 15.3674 29.698 16.3334V17.2573C32.414 17.6517 34.584 19.8146 34.899 22.6193C35.0064 23.5806 34.3157 24.4462 33.3544 24.5536C32.3837 24.6656 31.5274 23.9703 31.42 23.0089C31.2707 21.6789 30.1507 20.6756 28.816 20.6756H27.1827C25.7383 20.6756 24.5647 21.8494 24.5647 23.2938C24.5647 23.8794 24.7583 24.4486 25.1083 24.8919C25.477 25.3679 25.9717 25.6901 26.5503 25.8347L30.3023 26.7656C33.0323 27.4562 34.9363 29.8971 34.9363 32.7017C34.934 34.3351 34.297 35.8704 33.1397 37.0277Z" fill="#0057FF"/>
</svg>
