<svg width="56" height="56" viewBox="0 0 56 56" fill="none" xmlns="http://www.w3.org/2000/svg">
<path d="M29.75 11.6667V6.41669L40.25 16.9167H35C31.3133 16.9167 29.75 15.3534 29.75 11.6667ZM41.7898 27.3233L27.8599 41.3467C27.2065 42 26.8333 42.8867 26.8333 43.82V45.9667C26.8333 46.3634 26.5299 46.6667 26.1332 46.6667H14C9.33333 46.6667 7 44.3334 7 39.6667V11.6667C7 7.00002 9.33333 4.66669 14 4.66669H26.25V11.6667C26.25 17.3134 29.3533 20.4167 35 20.4167H42V26.8334C42 27.02 41.9298 27.2067 41.7898 27.3233ZM18.0833 35C18.0833 34.034 17.2993 33.25 16.3333 33.25C15.3673 33.25 14.5833 34.034 14.5833 35C14.5833 35.966 15.3673 36.75 16.3333 36.75C17.2993 36.75 18.0833 35.966 18.0833 35ZM18.0833 25.6667C18.0833 24.7007 17.2993 23.9167 16.3333 23.9167C15.3673 23.9167 14.5833 24.7007 14.5833 25.6667C14.5833 26.6327 15.3673 27.4167 16.3333 27.4167C17.2993 27.4167 18.0833 26.6327 18.0833 25.6667ZM27.4167 35C27.4167 34.034 26.6327 33.25 25.6667 33.25H22.1667C21.2007 33.25 20.4167 34.034 20.4167 35C20.4167 35.966 21.2007 36.75 22.1667 36.75H25.6667C26.6327 36.75 27.4167 35.966 27.4167 35ZM34.4167 25.6667C34.4167 24.7007 33.6327 23.9167 32.6667 23.9167H22.1667C21.2007 23.9167 20.4167 24.7007 20.4167 25.6667C20.4167 26.6327 21.2007 27.4167 22.1667 27.4167H32.6667C33.6327 27.4167 34.4167 26.6327 34.4167 25.6667ZM30.3333 43.82V49H35.5133L44.8466 39.7133L39.62 34.4867L30.3333 43.82ZM48.3933 33.25L46.0833 30.94C45.2667 30.1234 43.96 30.1234 43.1433 30.94L41.2532 32.8533L46.4798 38.08L48.3933 36.19C49.21 35.3734 49.21 34.0667 48.3933 33.25Z" fill="#0057FF"/>
</svg>
