<svg width="56" height="56" viewBox="0 0 56 56" fill="none" xmlns="http://www.w3.org/2000/svg">
<path d="M28.0422 4.66669C22.8155 7.25902 18.6667 9.33335 7 11.6667C7 14.3197 7 22.6378 7 25.4075C7 40.9638 20.223 48.741 28 51.3334C35.777 48.741 49 40.9638 49 25.4075C49 22.5492 49 14.4527 49 11.6667C37.3333 9.33335 33.1848 7.25902 28.0422 4.66669ZM36.2646 24.5701L26.9313 33.9034C26.5906 34.2441 26.1426 34.4167 25.6946 34.4167C25.2466 34.4167 24.7985 34.2464 24.4578 33.9034L19.7912 29.2368C19.1075 28.5531 19.1075 27.4447 19.7912 26.761C20.4748 26.0773 21.5833 26.0773 22.2669 26.761L25.6969 30.1909L33.7935 22.0943C34.4771 21.4107 35.5855 21.4107 36.2692 22.0943C36.9529 22.778 36.9483 23.8864 36.2646 24.5701Z" fill="#0057FF"/>
</svg>
