<svg width="128" height="48" viewBox="0 0 128 48" fill="none" xmlns="http://www.w3.org/2000/svg">
<path d="M19.8242 22.6305C19.8242 20.9673 20.1524 19.3207 20.7899 17.7847C21.4274 16.2487 22.3617 14.8533 23.5388 13.6787C24.7158 12.5044 26.1124 11.5733 27.649 10.9387C29.185 10.3044 30.8312 9.97956 32.4929 9.98049V9.97958H37.5288V16.7846H32.4902C31.7191 16.784 30.9555 16.9355 30.2433 17.2296C29.5311 17.5237 28.8845 17.9549 28.34 18.4981C27.7957 19.0413 27.364 19.6857 27.0697 20.3946C26.7755 21.1035 26.6242 21.8635 26.6242 22.6305V34.4114H19.8242V22.6305Z" fill="#0057FF"/>
<path d="M0 20.082V0H6.79993V20.082C6.79993 22.0648 7.58873 23.9683 8.99504 25.3727C10.4017 26.7773 12.3112 27.5675 14.3037 27.5676L17.9511 27.6338V34.3736H14.3037C10.5125 34.3735 6.87502 32.8695 4.19199 30.1903C1.50862 27.5107 0 23.8746 0 20.082Z" fill="#0057FF"/>
<path d="M17.9634 9.94894V16.7539H0.484375V9.94894H17.9634Z" fill="#0057FF"/>
<path d="M74.3184 20.082V0H81.1183V20.082C81.1183 22.0648 81.9071 23.9683 83.3134 25.3727C84.72 26.7773 86.6296 27.5675 88.622 27.5676H92.2816V34.3596L88.622 34.3736C84.8309 34.3735 81.1934 32.8695 78.5103 30.1903C75.827 27.5107 74.3184 23.8746 74.3184 20.082Z" fill="#0057FF"/>
<path d="M92.2818 9.94894V16.7539H74.8027V9.94894H92.2818Z" fill="#0057FF"/>
<path d="M48.1074 22.6586L54.9074 23.7121V48H48.1074V22.6586Z" fill="#0057FF"/>
<path d="M65.7562 22.2085C65.756 19.2009 63.312 16.7502 60.2822 16.7501C57.2523 16.7501 54.8084 19.2009 54.8082 22.2085C54.8082 25.2164 57.2522 27.6678 60.2822 27.6678C63.3122 27.6678 65.7562 25.2164 65.7562 22.2085ZM72.457 22.2085C72.457 28.9338 66.9993 34.3735 60.2822 34.3736C53.5651 34.3736 48.1074 28.9338 48.1074 22.2085C48.1077 15.4835 53.5653 10.0444 60.2822 10.0444C66.9991 10.0444 72.4568 15.4835 72.457 22.2085Z" fill="#0057FF"/>
<path d="M39.3926 9.94635L46.245 9.94635L46.2187 34.4106H39.4188L39.3926 9.94635Z" fill="#0057FF"/>
<path d="M38.2852 4.53278C38.2852 2.02939 40.3146 0 42.8179 0C45.3213 0 47.3507 2.02939 47.3507 4.53278C47.3507 7.03617 45.3213 9.06556 42.8179 9.06556C40.3146 9.06556 38.2852 7.03617 38.2852 4.53278Z" fill="#FAC91E"/>
<path d="M107.317 13.4386C109.391 11.3646 112.754 11.3646 114.827 13.4386C116.901 15.5125 116.901 18.875 114.827 20.949C112.754 23.0229 109.391 23.0229 107.317 20.949C105.243 18.875 105.243 15.5125 107.317 13.4386Z" fill="#FAC91E"/>
<path d="M121.397 17.1934C121.397 11.4022 116.774 6.70797 111.072 6.70797C105.37 6.70811 100.748 11.4023 100.748 17.1934V27.6796H111.072V34.3857H94.1445V17.1934C94.1447 7.69887 101.723 0.00208753 111.072 0.00195312L111.509 0.00733301C120.656 0.242613 128 7.84709 128 17.1934L127.994 17.6372C127.766 26.7795 120.511 34.1478 111.509 34.3794L111.072 34.3857V27.6796C116.774 27.6796 121.397 22.9846 121.397 17.1934Z" fill="#FAC91E"/>
</svg>
