<svg width="112" height="37" viewBox="0 0 112 37" fill="none" xmlns="http://www.w3.org/2000/svg">
<g clip-path="url(#clip0_19_459)">
<path d="M56.52 8.04C56.8533 8.04 57.1333 8.05333 57.36 8.08V8.28C56.5333 8.32 55.82 8.52 55.22 8.88C54.54 9.29333 54.0533 9.68 53.76 10.04C53.48 10.3867 53.2533 10.6733 53.08 10.9C52.92 11.1133 52.76 11.3733 52.6 11.68C52.3467 12.1467 52.1133 12.6067 51.9 13.06L46.54 24.78C45.9267 26.1 45.6 26.9733 45.56 27.4H45.38L39.32 14.34C39.12 13.9667 38.8667 13.6867 38.56 13.5C38.2533 13.3 37.94 13.2 37.62 13.2H37.46V13H43.82V13.2H43.66C43.3667 13.2 43.1467 13.2933 43 13.48C42.8667 13.6533 42.8 13.82 42.8 13.98C42.8 14.14 42.8267 14.3 42.88 14.46L46.28 22.72L50.42 13.06C51.0467 11.58 51.78 10.4667 52.62 9.72C53.86 8.6 55.16 8.04 56.52 8.04ZM69.3513 30.66C67.8979 31.3933 66.4246 31.5133 64.9313 31.02C63.3446 30.5133 61.9779 29.4333 60.8313 27.78C60.2179 26.9 59.6913 25.88 59.2513 24.72L58.6113 23.02H53.8913L52.8313 25.54C52.7646 25.7133 52.7313 25.8533 52.7313 25.96C52.7313 26.0667 52.7513 26.1867 52.7913 26.32C52.8446 26.44 52.9446 26.5533 53.0913 26.66C53.2513 26.7533 53.4246 26.8 53.6113 26.8H53.7713V27H49.4912V26.8H49.6712C49.9779 26.8 50.2779 26.7133 50.5713 26.54C50.8779 26.3533 51.1313 26.08 51.3313 25.72L55.7913 15.54C55.2713 14.3667 54.7179 13.56 54.1313 13.12C53.6379 12.7467 53.1646 12.56 52.7113 12.56C52.2713 12.56 51.8579 12.6267 51.4713 12.76L51.4313 12.56C52.3913 12.0667 53.3113 11.82 54.1913 11.82C55.2846 11.82 56.2646 12.2467 57.1313 13.1C57.9846 13.94 58.7379 15.1533 59.3913 16.74L62.2913 23.9C63.3846 26.6067 64.5046 28.4667 65.6513 29.48C66.1179 29.8933 66.5979 30.18 67.0913 30.34C67.5846 30.5 67.9979 30.58 68.3313 30.58C68.6779 30.58 69.0113 30.54 69.3313 30.46L69.3513 30.66ZM54.2313 22.16H58.3113L56.9113 18.46C56.8446 18.2733 56.7513 18.02 56.6313 17.7C56.5113 17.3667 56.4313 17.1333 56.3913 17L54.2313 22.16ZM60.5077 11.84C60.721 11.8267 61.061 11.82 61.5277 11.82C61.981 11.82 62.581 11.92 63.3277 12.12C64.0877 12.3067 64.7877 12.6067 65.4277 13.02C66.0677 13.4333 66.6543 13.9333 67.1877 14.52C68.1743 15.6133 68.9477 16.9267 69.5077 18.46C70.3077 16.18 71.3477 14.4333 72.6277 13.22C73.601 12.3 74.6743 11.84 75.8477 11.84C75.901 11.84 75.9543 11.84 76.0077 11.84V12.04C75.341 12.0533 74.6477 12.4067 73.9277 13.1C73.221 13.78 72.601 14.6067 72.0677 15.58C71.5343 16.5533 71.081 17.5667 70.7077 18.62C70.3477 19.6733 70.1343 20.5867 70.0677 21.36V25.54C70.0677 25.8733 70.1877 26.1667 70.4277 26.42C70.681 26.6733 70.9877 26.8 71.3477 26.8H71.6077V27H65.5277V26.8H65.7877C66.1343 26.8 66.4277 26.68 66.6677 26.44C66.921 26.1867 67.0543 25.8867 67.0677 25.54V21.34C66.9077 19.9 66.4277 18.3733 65.6277 16.76C64.7077 14.8933 63.6743 13.5667 62.5277 12.78C61.861 12.3133 61.1877 12.0667 60.5077 12.04V11.84ZM76.2875 26.8C76.6342 26.8 76.9275 26.68 77.1675 26.44C77.4208 26.1867 77.5542 25.8867 77.5675 25.54V14.44C77.5542 13.96 77.3342 13.6 76.9075 13.36C76.7208 13.2533 76.5142 13.2 76.2875 13.2H76.0275V13H82.1075L82.0875 13.2H81.8475C81.5008 13.2 81.2008 13.32 80.9475 13.56C80.6942 13.8 80.5675 14.0933 80.5675 14.44V25.54C80.5675 25.8867 80.6942 26.1867 80.9475 26.44C81.2008 26.68 81.5008 26.8 81.8475 26.8H82.0875L82.1075 27H76.0275V26.8H76.2875ZM96.1475 30.4C95.1742 30.9067 94.2875 31.16 93.4875 31.16C92.6875 31.16 91.9675 31.0467 91.3275 30.82C89.7408 30.2467 88.1208 28.9333 86.4675 26.88L81.2075 20.4L85.9475 14.12C86.0542 13.9867 86.1075 13.8667 86.1075 13.76C86.1075 13.6533 86.0875 13.56 86.0475 13.48C85.9408 13.28 85.7542 13.18 85.4875 13.18H85.2875V13H89.8675V13.18H89.7875C88.8942 13.18 88.1675 13.5 87.6075 14.14L83.7075 18.78L89.1475 25.54C90.3608 27.14 91.5008 28.3 92.5675 29.02C93.6342 29.74 94.8208 30.1333 96.1275 30.2L96.1475 30.4ZM109.722 30.66C108.269 31.3933 106.796 31.5133 105.302 31.02C103.716 30.5133 102.349 29.4333 101.202 27.78C100.589 26.9 100.062 25.88 99.6223 24.72L98.9823 23.02H94.2623L93.2023 25.54C93.1357 25.7133 93.1023 25.8533 93.1023 25.96C93.1023 26.0667 93.1223 26.1867 93.1623 26.32C93.2157 26.44 93.3157 26.5533 93.4623 26.66C93.6223 26.7533 93.7957 26.8 93.9823 26.8H94.1423V27H89.8623V26.8H90.0423C90.349 26.8 90.649 26.7133 90.9423 26.54C91.249 26.3533 91.5023 26.08 91.7023 25.72L96.1623 15.54C95.6423 14.3667 95.089 13.56 94.5023 13.12C94.009 12.7467 93.5357 12.56 93.0823 12.56C92.6423 12.56 92.229 12.6267 91.8423 12.76L91.8023 12.56C92.7623 12.0667 93.6823 11.82 94.5623 11.82C95.6557 11.82 96.6357 12.2467 97.5023 13.1C98.3557 13.94 99.109 15.1533 99.7623 16.74L102.662 23.9C103.756 26.6067 104.876 28.4667 106.022 29.48C106.489 29.8933 106.969 30.18 107.462 30.34C107.956 30.5 108.369 30.58 108.702 30.58C109.049 30.58 109.382 30.54 109.702 30.46L109.722 30.66ZM94.6023 22.16H98.6823L97.2823 18.46C97.2157 18.2733 97.1223 18.02 97.0023 17.7C96.8823 17.3667 96.8023 17.1333 96.7623 17L94.6023 22.16Z" fill="#2563EB"/>
<path d="M20.76 3.30886L33.76 10.883" stroke="#2563EB"/>
<line x1="33.998" y1="10.3089" x2="33.998" y2="28.3089" stroke="#2563EB"/>
<path d="M20.998 3.30887V29.3089" stroke="#2563EB"/>
<path d="M20.6417 3.78778L10.6417 8.78887" stroke="#2563EB"/>
<line x1="10.998" y1="8.30887" x2="10.998" y2="16.3089" stroke="#2563EB"/>
<line x1="10.7216" y1="15.8617" x2="16.7216" y2="18.8617" stroke="#2563EB"/>
<path d="M10.701 15.7658L3.49797 20.3089" stroke="#2563EB"/>
<path d="M3.5 20.31L3.5 28.81" stroke="#2563EB"/>
<path d="M16.998 18.8089V29.8489" stroke="#2563EB"/>
<path d="M10.998 16.3089V29.3089" stroke="#2563EB"/>
<rect x="28.498" y="20.3089" width="3" height="3" fill="#2563EB"/>
<rect x="23.498" y="20.3089" width="3" height="3" fill="#2563EB"/>
<rect x="28.498" y="14.3089" width="3" height="3" fill="#2563EB"/>
<rect x="23.498" y="14.3089" width="3" height="3" fill="#2563EB"/>
<rect x="3.49796" y="20.3089" width="7" height="9" fill="#2563EB"/>
<path d="M10.4262 16.3089L10.4262 21.0589H3.99796L10.4262 16.3089Z" fill="#2563EB"/>
<path d="M5 21.0631C5 20.9719 5 20.8807 5.1824 20.6514C5.3648 20.422 5.7296 20.0572 5.78072 20.0061C5.83185 19.9549 5.55826 20.2285 5 20.7868" stroke="#2563EB" stroke-linecap="round"/>
<path d="M7.52502 18.1793C7.43382 18.1793 7.34261 18.1793 7.20443 18.3617C7.06625 18.5441 6.88385 18.9089 6.60749 19.1424C6.33113 19.3759 5.96633 19.4671 5.31412 19.5611" stroke="#2563EB" stroke-linecap="round"/>
<path d="M10.565 18.1793C10.565 18.0881 10.565 17.9969 10.565 18.2235C10.565 18.4501 10.565 18.9973 10.5194 19.0968C10.4738 19.1963 10.3826 18.8315 10.2887 18.1793" stroke="#2563EB" stroke-linecap="round"/>
<path d="M10.8413 17.0739V17.6266" stroke="#2563EB" stroke-linecap="round"/>
<path d="M14.1577 11.5466C14.4313 12.1878 15.2604 13.202 15.6293 13.4342C15.9732 13.6505 15.4483 12.2873 15.4925 11.7802C15.5362 11.2792 16.6422 12.1878 16.9655 12.5581C16.9984 12.5958 16.8329 12.1988 16.8757 12.1933C17.3505 12.1321 17.6564 13.2932 17.9328 13.6636C18.1549 13.9612 17.8444 12.5636 17.6136 12.1933C16.9248 11.0879 18.0268 15.1338 17.7988 15.8717C17.3566 17.3026 15.2687 14.1334 14.481 13.0694C14.3936 12.9513 14.8873 12.9284 15.3032 13.1564C15.7191 13.3844 16.1751 13.8404 16.2732 13.9385C16.3713 14.0366 16.0978 13.763 16.1392 13.6221C16.2605 13.2096 17.2861 13.5724 17.8388 13.5281C18.0697 13.5097 18.0268 13.0279 18.0724 13.0224C18.1179 13.0169 18.2091 13.3817 18.0737 13.4328C16.7254 13.9419 15.639 11.4582 14.072 10.8115C13.6366 10.6318 13.0633 10.7175 12.7814 10.9911C12.4995 11.2647 12.4995 11.8119 12.4083 11.9114C12.3171 12.0109 12.1347 11.6461 12.0408 11.1846C11.9468 10.7231 11.9468 10.1759 12.1748 9.89399C12.4028 9.6121 12.8588 9.6121 13.0937 10.0681C13.3286 10.5241 13.3286 11.4361 13.1462 11.9515C12.9638 12.4669 12.599 12.5581 12.3199 12.4227C12.0408 12.2873 11.8584 11.9225 11.7644 12.1906C11.6704 12.4586 11.6704 13.3706 11.6704 13.3844C11.6704 13.3982 11.6704 12.4863 11.716 12.1988C11.8596 11.2937 12.4995 14.1223 12.4083 14.4926C12.3865 14.5814 12.1347 14.1334 12.0864 13.763C12.038 13.3927 12.1292 13.0279 12.2674 13.0224C12.4056 13.0169 12.588 13.3817 12.6363 13.7976C12.7371 14.6647 12.3171 15.5041 11.9952 15.8744C11.715 16.1967 11.6704 14.6833 11.716 13.81C12.2204 12.3785 12.9583 11.0934 12.5465 9.93821C12.588 9.70606 12.9528 9.52367 13.3286 9.33574" stroke="#2563EB" stroke-linecap="round"/>
<path d="M13.605 8.23029C13.5138 8.23029 13.4226 8.23029 13.1932 8.32149C12.9638 8.41269 12.599 8.59509 12.5935 8.59785C12.5879 8.60062 12.9527 8.41822 13.3286 7.95393" stroke="#2563EB" stroke-linecap="round"/>
<path d="M19.1322 9.88846C19.1322 9.70606 19.1322 9.1561 19.1322 9.28599C19.1322 9.87187 19.1322 11.5135 19.1322 11.7207C19.1322 11.928 19.1322 10.6512 19.3146 9.99348C19.497 9.33573 19.8618 9.33573 20.0954 9.51813C21.439 10.5676 20.3316 13.0169 19.9185 13.7064C19.6877 14.0311 19.4141 14.3047 19.2732 13.7161C19.1322 13.1274 19.1322 11.6682 19.1322 10.1648" stroke="#2563EB" stroke-linecap="round"/>
<path d="M20.2377 6.57212C20.2377 6.75452 20.2377 7.85168 20.1464 9.18927C20.0552 9.52366 19.8728 9.15887 19.7789 8.46934C19.6849 7.77982 19.6849 6.77663 19.6849 5.74304" stroke="#2563EB" stroke-linecap="round"/>
<path d="M20.2376 4.91396C20.2376 5.09635 19.8728 5.28151 19.4569 5.28289C19.3536 5.28323 19.6794 4.91948 19.8659 4.96093C20.0525 5.00239 20.1437 5.36718 20.1907 5.73751C20.2376 6.10783 20.2376 6.47263 20.2376 6.84848" stroke="#2563EB" stroke-linecap="round"/>
<path d="M17.1977 6.84849C16.5565 7.03088 15.3599 7.40121 14.8513 7.40121C15.1636 7.40121 15.8131 7.12761 16.5012 6.71307C16.9158 6.57213 17.463 6.57213 18.0267 6.57213" stroke="#2563EB" stroke-linecap="round"/>
<path d="M19.1322 6.29577C19.041 6.29577 18.9498 6.29577 18.766 6.43257C18.5822 6.56936 18.3086 6.84296 18.2133 6.75591C18.1179 6.66885 18.2091 6.21286 18.8558 5.74304" stroke="#2563EB" stroke-linecap="round"/>
<path d="M12.4995 9.6121C12.6819 9.6121 13.1407 9.42971 13.3742 9.15335C13.4784 9.03004 12.6045 9.05939 12.2757 9.37858C11.9468 9.69778 11.9468 10.3362 12.0836 10.5282C12.3263 10.869 12.9583 9.80003 13.4626 9.24731C13.7139 8.97194 14.2406 9.05939 14.5211 9.24178C15.6455 9.9729 14.8928 11.6351 15.2604 12.0054C16.1284 12.88 16.0894 9.89123 16.6864 9.52229C16.9731 9.34505 17.3745 9.51814 17.6536 9.79312C18.2695 10.3998 18.4855 11.3587 18.7163 11.5466C20.359 12.8845 18.4883 7.95946 18.3045 7.31278C18.0003 6.24226 18.3031 11.5245 18.5325 13.2974C18.5795 13.0307 18.5795 12.0275 18.5795 12.6051C18.5795 13.1827 18.5795 15.3715 18.5795 16.7975" stroke="#2563EB" stroke-linecap="round"/>
<path d="M20.2377 28.1283C20.2377 27.0312 20.4201 24.4527 20.4684 20.1304C20.4915 18.0658 19.9613 12.9727 19.6863 9.98243C19.6778 9.89007 19.5026 10.3417 19.3188 10.3928C18.8288 10.5291 18.4883 9.52367 18.4413 9.15335C18.2678 7.78586 19.1322 15.0122 19.3616 18.5828C19.6132 22.4987 19.685 23.9774 19.685 23.9857C19.685 28.2233 19.9613 14.8132 19.9613 14.1748C19.9613 13.3264 19.9613 10.408 19.9613 9.31502C19.8701 10.2533 19.5026 11.3587 19.2262 13.6442C19.1322 15.5649 19.1322 19.0305 19.1322 22.3247" stroke="#2563EB" stroke-linecap="round"/>
<path d="M19.1322 22.3247C19.1322 20.6804 18.7674 17.1733 17.8913 15.652C17.0591 14.2068 16.1917 13.2988 15.3101 12.4254C14.8978 12.017 16.457 11.7318 16.9642 11.4112C17.1923 11.267 17.0153 10.817 17.1051 10.4923C17.1949 10.1676 17.4685 9.89398 17.655 9.93543C17.8416 9.97689 17.9328 10.3417 17.7974 10.6208C17.662 10.8999 17.2972 11.0823 17.0636 10.9939C16.5422 10.7964 16.645 9.70882 16.8273 8.97231C16.9078 8.64753 17.3745 8.60061 17.7449 8.59923C18.1152 8.59785 18.48 8.68904 18.6679 9.05522C18.8558 9.4214 18.8558 10.0598 18.719 10.5255C18.5822 10.9911 18.3086 11.2647 17.9397 11.4513C17.5708 11.6378 17.1148 11.729 16.6975 11.6848C16.2802 11.6406 15.9154 11.4582 15.6818 11.1818C15.4483 10.9055 15.3571 10.5407 15.3101 10.1703C15.2631 9.80002 15.2631 9.43522 15.5823 9.2473C15.9015 9.05937 16.5399 9.05937 17.1977 9.33573" stroke="#2563EB" stroke-linecap="round"/>
<path d="M17.1977 9.33574C17.1065 9.33574 17.0153 9.33574 16.8771 9.51814C16.7389 9.70054 16.5565 10.0653 16.3258 10.3901C16.095 10.7148 15.8214 10.9884 15.5395 10.9939" stroke="#2563EB" stroke-linecap="round"/>
<path d="M15.5395 10.9939C15.5395 10.6291 15.2659 10.1676 14.669 9.79863C14.3822 9.6214 13.9808 9.79449 13.6561 9.97827C13.3314 10.1621 13.0578 10.4356 13.0992 10.531C13.6047 11.6935 15.9927 9.70605 17.3317 9.20031C17.6379 9.08465 17.6564 8.60613 17.2474 8.41821C16.035 7.86113 14.5308 8.41268 14.3871 8.68904C13.089 11.1853 18.1152 7.86273 18.7135 7.54215C19.002 7.38755 19.0382 6.94797 18.8572 6.76004C18.6762 6.57212 18.2202 6.57212 17.8941 6.75452C17.568 6.93691 17.3856 7.30171 17.474 7.39844C17.5625 7.49517 17.9273 7.31277 18.2064 7.4012C18.4855 7.48964 18.6679 7.85443 18.7163 8.22475C18.7646 8.59508 18.6734 8.95988 18.5809 8.9654C18.178 8.98945 18.3031 7.50069 18.1663 6.53204C18.1278 6.25932 17.7559 6.56659 17.5238 6.88993C16.5975 8.18012 16.645 9.42417 16.8274 10.0681C16.9182 10.3889 17.3745 10.5296 17.6081 10.4412C18.1295 10.2437 18.0268 8.7913 17.8444 7.45647C17.7705 6.91606 17.2972 6.76004 16.9724 6.89408C16.3741 7.48411 16.001 8.31872 16.0452 8.73465C16.1807 8.78577 16.5455 8.51217 17.1977 8.23028" stroke="#2563EB" stroke-linecap="round"/>
<path d="M19.1322 6.57213C18.9498 6.57213 18.5823 6.93693 18.1221 7.30726C17.9356 7.31279 17.8444 6.94799 17.9342 6.62326C18.024 6.29854 18.2976 6.02494 18.8559 6.01941" stroke="#2563EB" stroke-linecap="round"/>
<path d="M18.0268 8.78301C18.0268 8.60061 18.3004 8.23306 18.7149 7.54492C18.9408 7.16986 18.8559 6.58317 18.6735 6.39248C18.2952 5.99701 17.4768 6.84572 17.2447 7.16906C17.2069 7.22166 17.6509 7.0364 17.6109 7.17044C17.0295 9.11491 15.8159 10.6181 15.8159 11.3131C15.8159 13.3809 16.2746 7.59466 17.0098 6.11612C17.2861 5.837 17.6509 5.6546 17.8389 5.74303C18.0268 5.83147 18.0268 6.19627 18.0268 6.57212" stroke="#2563EB" stroke-linecap="round"/>
<path d="M17.1977 9.33573C16.5565 9.24453 14.9039 8.69458 13.6533 8.36985C13.512 8.33315 13.8758 7.95946 14.3359 7.81851C14.7961 7.67757 15.4345 7.67757 15.6265 7.81437C16.5536 8.47463 13.4281 9.24177 12.3171 9.56511C11.9692 9.66636 13.2346 9.97689 13.4198 10.3472C13.5994 10.7065 12.6874 9.42969 12.0891 9.33573C11.8424 9.297 11.7644 9.78897 11.7174 10.1593C11.6704 10.5296 11.6704 10.8944 11.8528 11.0367C12.2861 11.3748 13.1407 10.8115 13.6022 10.3527C13.8099 10.1463 13.5165 9.71159 13.2402 9.47806C12.9638 9.24453 12.599 9.15334 12.2743 9.28875C11.9496 9.42417 11.676 9.78897 11.535 10.2049C11.3941 10.6208 11.3941 11.0768 11.5765 11.3117C12.4256 12.4053 13.9698 12.5581 14.4769 12.6521C14.9254 12.7352 14.4341 11.367 14.3429 10.4937C14.2568 9.66959 13.6077 9.06214 13.0108 8.69319C12.724 8.51596 12.3227 8.68905 12.3171 8.78163C12.3116 8.87421 12.6764 8.96541 12.8643 9.19479C13.798 10.3345 14.1522 12.2762 15.0752 13.5696C15.4633 14.1134 16.3658 14.0311 16.8716 14.6281C17.3909 15.241 17.5652 16.0568 17.521 16.5184C17.4726 17.0235 16.2801 15.9712 15.6818 15.3742C14.6079 14.3028 14.7132 12.84 14.481 12.4241C14.2553 12.0196 15.4455 13.2932 15.7219 14.074C15.8642 14.4759 15.8159 14.9459 15.5879 15.1352C15.3599 15.3245 14.9039 15.2333 14.5322 15.0039C13.7857 14.5432 13.3314 13.7603 12.9168 13.5737C12.7658 13.5058 12.7759 14.1168 12.9583 14.3973C13.7048 15.5454 15.534 15.5926 16.551 16.7947C17.32 17.7038 13.7984 15.786 12.6391 15.2333C12.5469 15.1893 13.1351 15.1393 13.5069 15.2761C14.9451 15.8054 15.7164 17.8034 16.9628 18.9586C17.2547 19.2292 17.6509 19.3732 17.93 19.2847C18.5467 19.0894 18.7619 18.0909 19.0382 17.3557C19.299 16.662 18.9498 15.88 18.6278 15.5096C17.8563 14.6222 17.9355 17.715 17.615 18.3133C17.4604 18.6019 17.0208 18.6381 16.8329 18.2746C16.6449 17.9112 16.6449 17.0904 16.3713 16.6676C15.8698 15.8924 14.622 15.9712 13.9325 15.3742C13.243 14.7774 12.8698 13.9454 12.6847 13.2103C12.5942 12.8512 12.8643 12.4752 13.1407 12.1961C13.417 11.9169 13.7818 11.7345 14.0154 11.8686C14.5995 12.2038 14.4341 13.7492 14.3429 14.8105C14.3208 15.0667 14.0693 14.6861 13.9753 14.179C13.8813 13.6718 13.8813 13.0334 14.0181 12.8414C14.1549 12.6493 14.4285 12.9229 14.5695 13.4286C14.7104 13.9344 14.7104 14.664 14.6648 14.8574C14.6145 15.0708 14.4341 13.6718 14.3429 12.887C14.3025 12.5393 13.8813 14.3019 14.0637 15.6824C14.1943 16.6706 15.2604 17.0711 15.5837 17.3032C15.9309 17.5525 14.9895 16.2475 14.3926 15.8786C14.1058 15.7014 13.7045 15.8744 13.6989 15.967C13.6934 16.0596 14.0582 16.1508 14.0637 16.289C14.0693 16.4272 13.7045 16.6096 13.4709 16.5211C12.9495 16.3237 12.8698 15.3272 12.7759 14.8657C12.6839 14.4137 13.8786 15.4129 14.1107 15.8731C14.1968 16.0437 13.7045 16.1508 13.3797 16.061C13.055 15.9712 12.7814 15.6976 12.7773 15.283C12.7673 14.2843 13.6022 13.3015 14.1535 12.4738C14.4108 12.0876 14.7049 11.8285 14.8458 12.1892C15.2604 14.9514 16.1807 16.4216 17.0097 17.8062C17.2861 18.0853 17.6509 18.2677 18.3031 18.4557" stroke="#2563EB" stroke-linecap="round"/>
<path d="M18.3031 21.772C18.3031 21.5896 18.3031 20.5836 18.3031 19.3842C18.3031 18.5611 17.8444 21.6725 17.521 23.2395C17.4273 23.6938 17.4741 24.2482 17.5196 24.3477C17.9597 25.3079 18.0268 21.5067 18.2562 20.4358C18.7283 18.2316 18.0268 24.9805 18.1636 27.1928C18.2053 27.8674 18.574 27.5811 18.7149 27.1666C19.0278 26.2463 18.9471 25.2763 19.0852 25.0883C19.6229 24.3571 19.041 27.1113 18.9028 27.0712C17.3746 26.6281 18.9471 23.8033 19.1764 23.2948C19.3605 22.8868 19.6849 24.6213 19.5481 25.4517C19.4801 25.8646 18.8559 23.4468 18.7191 21.0963C18.6771 20.3756 18.3087 20.661 18.1221 20.9844C17.9356 21.3077 17.8444 21.6725 17.7974 21.2676C17.7504 20.8628 17.7504 19.6772 17.796 19.2488C17.8754 18.5033 18.3031 21.9433 18.5325 24.2938C18.6262 25.2535 18.5795 26.8073 18.5795 27.2868C18.5795 27.7663 18.5795 27.1279 18.4427 26.9358C18.3059 26.7437 18.0323 27.0173 17.8914 27.3863C17.7504 27.7552 17.7504 28.2112 17.7504 27.8077C17.7504 27.4042 17.7504 26.1275 17.7504 25.9713C17.7504 25.8152 17.7504 26.8184 17.9328 27.3808C18.1152 27.9431 18.48 28.0343 18.8503 28.0813C19.2207 28.1283 19.5855 28.1283 19.7734 27.7179C19.9613 27.3075 19.9613 26.4867 19.9613 26.6111C19.9613 26.7354 19.9613 27.8298 19.7789 28.3936C19.5965 28.9574 19.2317 28.9574 18.8614 28.8662C18.4911 28.775 18.1263 28.5926 18.1207 28.4074C18.1152 28.2223 18.48 28.0399 18.8503 27.9915C19.2207 27.9431 19.5855 28.0343 19.7734 28.2637C19.9613 28.4931 19.9613 28.8579 19.6421 29.0458C19.3229 29.2338 18.6845 29.2338 18.3556 28.413C18.0268 27.5922 18.0268 25.9506 18.0268 25.6521C18.0268 25.3536 18.0268 26.448 18.0268 27.5756" stroke="#2563EB" stroke-linecap="round"/>
<path d="M17.7504 25.6411C17.7504 25.4587 17.7504 24.7263 17.796 23.9414C18.0268 24.9916 18.3916 26.647 18.9457 27.8036C19.1294 27.8547 19.403 27.5811 19.6849 26.7465" stroke="#2563EB" stroke-linecap="round"/>
<path d="M17.498 27.3089H21.498V30.3089H16.498L17.498 27.3089Z" fill="#2563EB"/>
<path d="M19.5857 26.1031C19.6084 26.0804 19.7336 25.8758 19.9113 25.6118C19.9647 25.5324 19.9867 25.5976 19.9926 25.6608C19.9984 25.7922 19.9757 25.9191 19.9413 26.0392C19.9297 26.1024 19.9297 26.1705 19.9297 26.2407" stroke="#2563EB" stroke-linecap="round"/>
<path d="M16.8343 29.8864C16.8343 29.8637 16.8343 29.8066 16.8286 29.7605C16.8107 29.6154 16.7311 30.0349 16.7254 30.081C16.7196 30.1285 16.6967 29.9215 16.691 29.841C16.6884 29.8039 16.6623 30.0116 16.6623 30.0867C16.6623 30.1024 16.6623 29.9462 16.668 29.9046C16.6704 29.8873 16.6967 30.0573 16.691 30.1894C16.6854 30.2193 16.674 30.1739 16.6682 30.1221C16.6623 30.0704 16.6623 30.0136 16.6623 29.9552" stroke="#2563EB" stroke-width="0.3" stroke-linecap="round"/>
<path d="M17.5909 16.8858C17.5682 16.9085 17.4998 16.9769 17.4081 17.0856C17.3386 17.168 17.3502 17.3091 17.3615 17.4068C17.3792 17.5591 17.4877 16.7069 17.5163 16.2338C17.5239 16.1082 17.5221 15.9152 17.5221 15.9236C17.5221 16.1477 17.4313 16.8579 17.2938 17.6257C17.2338 17.9602 17.2356 18.0661 17.1901 18.1463C17.166 18.1887 17.0991 18.2037 17.0415 18.1586C16.7065 17.8967 16.7999 17.358 16.8226 17.0199C16.8441 16.6995 17.3605 16.5315 17.5785 16.2395C17.6613 16.1287 17.7381 15.9379 17.9608 15.2485C18.1835 14.5591 18.5354 13.3673 18.7563 12.5151C18.9773 11.6628 19.0568 11.1861 19.0977 10.759C19.1386 10.3318 19.1386 9.96861 19.2181 9.49209C19.5103 7.73904 19.6315 7.55421 19.6487 7.52515C19.8145 7.24491 19.3133 8.69469 19.0647 9.25495C19.03 9.333 18.979 9.37567 18.9443 9.37068C18.7244 9.33912 18.9433 8.83914 19.0122 8.59787C19.08 8.36083 19.173 8.01508 19.27 7.76642C19.288 7.72027 19.3216 7.68078 19.3503 7.67441C19.6051 7.61795 19.6882 8.50209 19.7176 8.81403C19.7467 9.12253 19.2445 9.61436 18.425 10.2916C18.1263 10.5383 17.3557 10.5457 16.3904 10.4377C15.9962 10.3936 15.6439 10.1344 15.3005 9.91702C14.6229 9.4881 14.1757 8.68987 14.066 8.50019C13.9603 8.31744 13.6605 8.21937 13.43 8.1671C13.2324 8.12226 13.0407 8.38996 12.8626 8.52771C12.5661 8.75692 12.0433 8.6541 11.7909 8.85977C11.7275 8.91139 11.6877 8.96295 11.6473 8.96932C11.6069 8.97568 11.5728 8.94163 11.5723 8.90706C11.5698 8.73686 11.8239 8.71188 11.8927 8.71154C11.925 8.71138 11.9161 8.80199 11.899 8.85977C11.8369 9.0706 11.6643 9.14696 11.5728 9.19855C11.5299 9.22277 11.4813 9.21609 11.4693 9.19339C11.4572 9.17069 11.4799 9.12529 11.5257 9.08488C11.6276 8.99481 11.7891 8.95264 12.7437 8.81609C13.6173 8.69113 15.2873 8.49796 16.2149 8.37002C17.1424 8.24207 17.2786 8.19667 17.7177 8.16761C18.8925 8.08984 19.6999 8.10416 19.8084 8.08696C19.871 8.07704 19.951 8.08111 19.9919 8.10381C20.0328 8.12651 20.0328 8.17191 19.9477 8.25205C19.5154 8.65902 19.2084 8.59701 19.0366 8.57999C18.9653 8.57291 18.9329 8.52891 18.9154 8.48867C18.83 8.29279 19.0695 8.07011 19.1494 8.00132C19.1885 7.96772 19.2521 7.97793 19.2927 8.00063C19.3333 8.02333 19.356 8.06873 19.362 8.12049C19.368 8.17225 19.3567 8.229 19.3281 8.26391C19.2996 8.29882 19.2542 8.31017 19.2194 8.28764C19.1847 8.26512 19.162 8.20837 19.173 8.17346C19.184 8.13855 19.2294 8.1272 19.2812 8.16108C19.6129 8.37818 19.4598 9.33715 19.3911 9.81693C19.3755 9.92548 19.2999 10.1089 18.8844 10.6728C18.5618 11.1107 17.9582 11.8155 17.6258 12.1952C17.2934 12.5749 17.2367 12.5976 17.0712 12.6036C16.2049 12.6352 15.4063 12.3362 15.0121 12.1856C14.8287 12.1155 14.3387 12.1395 14.0546 12.2478C13.8366 12.331 13.7747 12.8934 13.5733 13.1023C13.5166 13.1611 13.441 12.9883 13.3783 12.9252C13.3099 12.8564 13.1776 12.9532 13.1315 12.982C13.0152 13.0544 13.406 13.0107 13.4861 13.0052C13.7956 12.9839 13.4988 14.5429 13.4581 15.0215C13.4311 15.3388 13.395 15.5891 13.3152 15.7731C13.2355 15.9569 12.9258 15.8994 12.7308 15.9969C12.6734 16.0256 12.6053 16.0596 12.5986 16.0772C12.5796 16.1267 12.7411 16.1288 12.77 16.1747C12.797 16.2175 12.6387 16.1295 12.5927 16.1006C12.5818 16.0937 12.5922 16.1511 12.6491 16.1688C12.9774 16.271 13.3358 16.2089 13.5662 16.3007C13.757 16.3767 13.9102 16.5067 14.0821 16.6445C14.2595 16.7866 14.3346 17.0109 14.4495 17.1035C14.5686 17.1995 14.0842 16.9208 13.9339 16.8572C13.8612 16.8264 14.1282 16.8741 14.1686 16.9085C14.3314 17.0469 13.7052 16.7145 13.4589 16.4569C13.2642 16.2532 13.1546 16.0149 13.0803 15.9405C13.04 15.9114 12.9946 15.9 12.8861 15.8942C12.7776 15.8884 12.6074 15.8884 12.432 15.8884" stroke="#2563EB" stroke-width="0.3" stroke-linecap="round"/>
<path d="M10.3684 16.7138C10.4595 16.6227 10.6655 16.3485 10.815 16.164C10.8457 16.126 10.8836 16.0954 10.8898 16.1062C10.9824 16.2684 10.5424 16.5742 10.2948 16.8275C9.93995 17.1904 9.76167 17.3549 9.34964 17.6699C9.11825 17.8468 8.86745 17.8832 8.66677 17.9516C8.60318 17.9733 8.52421 17.9973 8.38681 18.009C8.24941 18.0207 8.05646 18.0207 8.14434 17.8845C8.23221 17.7483 8.60675 17.4759 8.75997 17.4151C9.22997 17.2283 8.22499 18.3757 8.19593 18.4218C8.13954 18.5112 9.1113 18.3189 10.2631 18.3074C10.6772 18.3033 10.7453 18.3186 10.7861 18.3471C10.9582 18.4677 10.8045 18.7994 10.7697 19.8449C10.7576 20.2095 10.6896 20.3818 10.6382 20.4451C10.411 20.7247 10.5744 19.5003 10.6373 19.4255C10.7744 19.2626 10.6896 19.9 10.6098 20.1347C10.5072 20.4365 10.0382 20.6109 9.60347 20.7313C8.82873 20.9458 7.99868 20.3615 7.65785 20.1251C7.42663 19.9647 7.057 19.878 6.71255 19.8494C6.51898 19.8334 5.95917 20.1046 5.23158 20.5115C4.76337 20.7733 4.56797 20.7722 4.47063 20.7495C4.42535 20.7389 4.40735 20.6814 4.41268 20.6353C4.43788 20.4174 4.71551 20.3141 4.82523 20.205C4.67115 20.2216 4.44243 20.3134 4.28697 20.4334C4.25808 20.4737 4.23538 20.5191 4.24639 20.5658" stroke="#2563EB" stroke-width="0.3" stroke-linecap="round"/>
<path d="M3.79907 20.1857C3.77637 20.1857 3.66253 20.1857 3.51911 20.163C3.47259 20.1556 3.50054 20.0949 3.51223 20.0942C3.52392 20.0935 3.52392 20.1389 3.51257 20.185C3.50122 20.2311 3.47853 20.2765 3.45548 20.2772C3.39155 20.2791 3.34095 20.197 3.29487 20.2029C3.24243 20.2095 3.40905 20.1059 3.42075 20.0314C3.40974 20.0024 3.36434 19.991 3.3296 20.0079C3.29487 20.0247 3.27217 20.0701 3.17999 20.2201" stroke="#2563EB" stroke-width="0.3" stroke-linecap="round"/>
<path d="M10.506 15.4413C10.5287 15.4186 10.5744 15.3728 10.66 15.2872C10.7116 15.2356 10.7797 15.1675 10.8432 15.1154C10.9066 15.0633 10.9634 15.0292 11.0906 14.9254" stroke="#2563EB" stroke-width="0.3" stroke-linecap="round"/>
<path d="M12.3976 16.1635C12.3976 16.1408 12.3976 16.0383 12.4089 15.8326C12.4203 15.7178 12.443 15.5816 12.4603 15.4887C12.4777 15.3959 12.489 15.3505 12.5351 15.3037" stroke="#2563EB" stroke-width="0.3" stroke-linecap="round"/>
<path d="M21.2069 3.30518L10.3 7.9" stroke="#2563EB"/>
<path d="M3.40441 28.9538C3.40441 28.9451 3.40441 28.9057 3.41313 28.8572C3.41599 28.8413 3.43929 28.8523 3.45482 28.8634C3.48532 28.885 3.50999 28.9184 3.52981 28.9536C3.53911 28.9701 3.53655 28.9887 3.52783 28.9912C3.46063 29.01 3.40467 28.9144 3.36484 28.8768C3.31828 28.8328 3.43956 28.9887 3.44848 29.044C3.45762 29.1007 3.34759 28.9234 3.27036 28.89C3.22867 28.8878 3.18876 28.879 3.15361 28.8636C3.13591 28.857 3.11847 28.8526 3.10049 28.8481" stroke="#2563EB" stroke-width="0.2" stroke-linecap="round"/>
<path d="M3.44405 29.0727C3.41339 29.0684 3.34309 29.0334 3.26817 29.0089C3.21994 29.0067 3.17554 28.998 3.14258 28.9782C3.12705 28.9672 3.11397 28.9541 3.12692 28.901" stroke="#2563EB" stroke-width="0.2" stroke-linecap="round"/>
<path d="M3.54976 29.2049C3.54104 29.2049 3.47114 29.2049 3.36332 29.2027C3.30346 29.1962 3.25496 29.1917 3.2 29.1895C3.17555 29.1873 3.15811 29.183 3.14014 29.1653" stroke="#2563EB" stroke-width="0.2" stroke-linecap="round"/>
<rect x="3" y="28" width="1" height="1.3" fill="#2563EB"/>
<path d="M5.59986 20C5.59986 20.0912 5.59986 20.1824 5.41746 20.2294C5.23506 20.2764 4.87026 20.2764 5.04714 20.2764" stroke="#2563EB" stroke-linecap="round"/>
</g>
<defs>
<clipPath id="clip0_19_459">
<rect width="112" height="37" fill="white"/>
</clipPath>
</defs>
</svg>
